<?xml version="1.0" encoding="UTF-8"?>
<svg version="1.1" viewBox="0 0 2535 450" width="1280" height="1280" xmlns="http://www.w3.org/2000/svg">
<path transform="translate(133,63)" d="m0 0h57l29 1 34 3 25 5 22 8 2 1v2l-8 4 33 9 8 4 12 10-1 2-7 2 13 5 5 3v2h-2v2l5 2 8 8 1 5-2 1 9 8 6 14 4 13 3 17v8l13-4v11l-3 20-6 24-6 16-8 16-7 12-9 11-8 9-14 11-27 15-28 12-23 7-25 5-26 3-38 2h-47l-89-1 4-4 9-7 7-7 8-13 5-15 1-5 1-76 3-16 5-13 7-12 11-12 8-7 10-6 15-6 26-5 17-1 16 2 19 5 14 6 11 7 10 8 8 7 12 16 1 3-16 5-5-2-15-9-17-8-13-4-13-1-9 7-6 9-3 9-3 95-1 12h33l20-2 21-5 9-6 8-7 9-12 9-19 5-18 3-20 1-13v-32l-2-22-4-20-7-19-7-12-9-11-12-9-16-7-18-4-10-1h-10l-24 3-3 2-2 10-1 17-3 6-6 4-16 7-15 9-10 8-9 10-6 11-6 2-12 2h-3l-1-46v-57l-10-3-32-13 3-2z" fill="#fff"/>
<path transform="translate(399,99)" d="m0 0h147l27 3 20 5 12 5 3 4 9 2 6 5 4 16 9-1 1 7-4 13v2l4 1-2 5-12 13-1 2 13-4h3l-1 5-9 13-8 6-15 8-20 8-12 4 6 8 12 14 9 11 12 14 9 11 12 14 14 17 11 13 12 14 11 12 12 10 19 13 16 9 19 7 19 3-6 8-2 3-6 1h-42l-20-3-21-6-14-6-24-14-17-12-13-11-12-11-12-12-9-11-14-19-29-44-18-27-11-17v-3l12-4 21-1 15-2 7-5 7-11 3-10v-18l-4-11-8-9-11-5-20-4-23-2 1 171 4 11 7 8 16 8 7 3-5 5-6 4h-121l4-4 10-6 7-4 8-11-22 6 2-4 7-7 10-13-6 1 3-10 2-6v-154l10-2-46-18-1-2 2-1z" fill="#fff"/>
<path transform="translate(2435,59)" d="m0 0h25l-1 6-4 6-8 7-7 9-7 15-7 20-5 6h-10l-12-2-4-11-7-10-7-6-14-7-16-4-10 2-12 5-9 7-7 8-3 7v8l4 8 10 9 41 23 29 16 20 12 17 12 13 11 10 7 10 9 7 8 9 16 3 10v7l-5-1 4 17v7l-7-2v11l-3 9-6-2-8 10-18 18-14 10-12 7-21 8-21 5-19 2h-18l-19-2-21-5-20-8-24-13-16-12-10-10-9-14-5-11-4-16v-20l4-17 5-12 7-11 9-10 10-8 9-5 11 2 8 2-1 5-11 24-7 21-2 9-1 14 3 14 6 10 9 11 12 10 8 5 17 5 11 2 16 1 19-2 18-6 8-5 6-8 4-8 2-8v-8l-2-9-6-12-8-10-12-12-17-13-28-17-28-15-16-9-8-3-5-4-5-6-10-3-2-8v-8h-6l-1-4 3-14v-3l-4-1 2-12 7-14 9-14 11-12 13-9 14-7 16-4 19-2h38l28 2h15l27-5z" fill="#fff"/>
<path transform="translate(2049,98)" d="m0 0 23 1 15 2-1 6-17 45-4 9-14-3-4-9-7-20-10 6-9 10-8 15-5 17-3 22v42l3 22 4 15 8 16 7 9 4 3 12 3h18l12-3 10-5 10-9 7-11 4-10 4-16 2-13 1-14v-25l-2-22-4-17-5-13-7-12-3-3 2-9 8-21 15 1 19 8 12 7 13 10 12 12 10 14 10 20 9 2 2 9v25l5 1v9l-6 17 2 1-1 6-14 21h3l-2 5-7 8-8 10-7 9-9 9-14 10-10 6-17 7-19 5-14 2-20 1-26-2-21-5-16-6-14-7-18-12-11-9-12-12-9-14-7-14-4-12-3-17v-31l4-20 5-13 8-15 10-13 10-10 16-11 15-8 21-7 14-3z" fill="#fff"/>
<path transform="translate(1424,99)" d="m0 0h83l5 2 12 14 13 15 12 14 13 15 24 28 13 15 12 14 5 6v-88l-2-12-4-8-6-5-13-4-11-3v-3h96l6 2-1 3-20 10h-2l1 147 3 13 3 10-7-1 8 11 11 12 4 5-2 1-26-9 6 9 7 6 8 5 5 6v2h-16l-5-1v22h-4l-26-30-9-10-9-11-11-12-9-11-12-13-9-11-12-13-9-11-12-13-7-8-12-14-10-11-9-11-1-1v125l2 13 2 4 12 6 16 5 4 7v2h-96l-3-9 20-11h2v-194h10l-42-18z" fill="#fff"/>
<path transform="translate(1695,99)" d="m0 0h216l10 2v76l-10-2-4-2-8-19-8-12-3 5-12-3-9-8-2 8-12-3-5-6-6-3 1 171 4 11 4 4 16 7 10 8v2h-131l-8-8v-2l31-11h3v-183l5-3 4-2h-21l-14 3-16 8-10 9-7 10-7 17-1 4-5-1-6-3v-73z" fill="#fff"/>
<path transform="translate(701,98)" d="m0 0h83l12 22 14 27 12 22 23 45 8 13 8 8 7 5v3l-3 2 1 4 9 6 7 3-6 8h15v3l-9 9 5-1 5-2-2 5-5 6 1 5 10 19 20 15v4l-4 6h-82l-18-38-12-26-14-30-32-69-3 4-15 29-3 5-7 4-19 1-10 3-9 6-7 6-9 4 2-6 16-33 13-28 15-31 7-15 7-2-40-17-1-2z" fill="#fff"/>
<path transform="translate(1210,98)" d="m0 0h83l5 8 16 31 10 19 15 29 14 26 8 14 7 8 10 8 1 7-3 2 10 6 5 2 2 4-1 4h8l3 6 1 10-8 9 2 6 7 13 19 14 3 2 2 9h-81l-8-16-17-36-13-28-14-30-13-28-14-31v-2h-2l-2 6-14 27-9 17h-9l-14 2-14 6-13 10-2 2v-7l8-16 23-47 18-37 4-8h7l-38-16-3-2z" fill="#fff"/>
<path transform="translate(1093,99)" d="m0 0h88l-1 4-24 12-12 12-8 7-15 15-8 7-17 17-8 7-18 18-3 2 2 5 13 15 9 11 12 14 9 11 11 13 9 11 22 26 8 10 12 14 9 10 12 11 17 12 18 10 16 7 11 3 13 1 1 11-1 1-9 1h-34l-27-4-17-5-18-8-22-13-14-10-11-9-20-18-11-12-11-14-12-17-29-44-19-28 1-4 7-8 74-74 5-9 1-6-5-6-9-5v-3z" fill="#fff"/>
<path transform="translate(914,99)" d="m0 0h127v2l-9 4-20 8-1 1 1 182 3 10 6 8 15 8 10 4-3 8-1 1h-121l2-5 5-5 15-8 3-3 1-4-17 6h-2l2-5 9-10 7-8h-5l3-9 2-7v-154l10-2-39-15-8-4 1-2z" fill="#fff"/>
<path transform="translate(720,226)" d="m0 0h18l14 3 15 6 14 8 10 8-1 3-4 3h-2l-1 2-24-4h-21l-15 4-5 3-9 14-6 14-5 15-1 8-1 21-10 9-7-6-33-36-1-3 17-34 12-15 12-9 16-9 12-4z" fill="#fff"/>
<path transform="translate(1228,226)" d="m0 0h20l17 4 17 8 12 8 7 5v7l-11-1-13-2h-23l-17 5-8 6-6 7-8 14-7 19-2 8-1 20-1 9-3-1-7-8-14-15-9-10-8-9 1-9 15-30 8-11 6-7 12-9 11-5z" fill="#fff"/>
<path transform="translate(2052,168)" d="m0 0 11 2 5 2 15 48-9 29-6 19-3 1-13-6-17-45 1-7 11-30z" fill="#fff"/>
</svg>
